<?xml version="1.0" encoding="UTF-8"?>
<svg xmlns="http://www.w3.org/2000/svg" viewBox="463.09 41.91 994.69 994.69" fill="none">
  <g id="Layer_1" data-name="Layer 1" fill="#dcdcdc">
    <g>
      <path d="M1456.32,582.27c1.46-7.26-.35-14.85.02-22.22,1.16-22.82-.69-50.57-7.56-72.44-1.41-4.5-1.81-9.18-3.35-14.05l-4.45-14.03-4.73-13.66c-3.88-11.19-8.62-21.36-13.89-32.09-11.56-23.51-26.96-44.37-44.23-63.99-2.42-2.75-32.06-29.93-45.41-39.59-5.03-3.64-9.38-7.82-14.93-11.17-11.27-6.79-39.55-24.5-50.75-24.39-3.8-6.52-54.03-18.57-61.81-19.51l-15.81-1.91c-7.42-.9-13.83-1.73-20.88-1.61,2.48-2.09-19.86-1-22.22-1.09-.88.08-1.89.49-1.38,1.16l-22.06,1.62c-7.35.54-12.41,1.92-18.94,3.49-9.76,2.34-20.21,1.37-30.06,5.99-4.76,2.23-9.99,2.93-15.03,4.65-34.3,11.71-65.35,28.97-93.23,52.1-2.52,2.09-4.56,3.92-7.45,3.47-18.91-17.96-41.88-31.3-65.72-43.04-2.59-1.28-4.87-1.77-7.2-1.16-1.88-4.43-7.09-3.61-10.53-5.54-3.51-1.97-6.4-3.71-10.34-4.89l-25.38-7.59c-18.38-5.49-43.84-9.17-61.97-9.18,4.95-1.75-28.54-1.74-23.6-.02-5.83,0-11.96-.51-18.18.53-3.3.55-6.34,2.48-10.01,1.51-3.89-1.03-7.09,1.65-10.33,1.98-129.68,13.31-250.13,147.22-250.6,286.04l-1.2,358.25c-.02,4.62,4.72,9.21,8.65,9.21l190.56-.02c5.25,0,11.08-3.33,11.1-8.92l1.52-357.13c.17-39.48,45.02-81.62,79.62-81.05,6.69.11,13.4.39,20.1-.02,1.91-.12,3.85.28,5.76.32,2.34,2.3,6.21,1.25,9.03,2.3,10.34,3.84,21.56,7.53,30.41,15.11,4.43,3.8,9.95,7.65,13.4,11.9,17.25,21.28,19.85,37.97,18.77,36.26.41.64,1,1.74,2.26,1.01-1.09,6.07,1.22,11.48,1.23,18.45l.2,352.8c0,4.72,4.44,9.03,8.81,9.02l189.04-.05c5.32,0,11.58-3.61,11.59-9.16l.2-352.44c.01-18.75,4.76-28.33,13.3-43.53,9.1-16.18,23.07-27.49,39.77-35.25,2.82-1.31,4.66-4.78,8.13-3.67,4.01,1.29,8.82-.93,12.5-2.73,2.27.26,4.77-.74,7.02-.29,3,.61,5.15-.03,7.78-.98,2.82-1.02,6.6.79,9.5.1.48,1.77,2.81.82,4.03.86l6.16.19c7.28.22,14.66,5.16,22.02,7.49,1.95.62,3.56,3.71,6.28,2.64,2.15,2.95,6.36,4,9.08,6.58,16.12,15.29,18.44,17.29,28.8,37.41,2.52,4.89,4,8.72,4.46,14.28.5,6.08,2.56,11.88,2.6,18.39l.88,143.01.9,209.22c.02,4.01,2.45,6.34,6.52,6.35l67.22.18,124.17.06c5.3,0,10.22-3.23,10.22-9.06l-.05-298.39c0-6.64-1.59-11.79-.32-18.09Z"/>
      <path d="M1450.42,341.51c.89,1.5,2.73,2.65,3.89,1.92,1.15-.72,2.4-1.36,2.4-4.1l-.27-160.09c0-5.33-8.08-8.16-11.89-7.34-4.69,1.01-7.2-.02-11.58-.03l-170.75-.29c-4.5,0-7.36-2.21-10.99,1.06-2.38,2.14-4.27,4.67-4.26,8.95l.14,46.41c77.48,1.79,160.21,41.14,203.31,113.52Z"/>
    </g>
  </g>
</svg>
